<?xml version="1.0" standalone="no"?>
<!DOCTYPE svg PUBLIC "-//W3C//DTD SVG 20010904//EN"
 "http://www.w3.org/TR/2001/REC-SVG-20010904/DTD/svg10.dtd">
<svg version="1.0" xmlns="http://www.w3.org/2000/svg"
 width="79.000000pt" height="69.000000pt" viewBox="0 0 79.000000 69.000000"
 preserveAspectRatio="xMidYMid meet">
<metadata>
Created by potrace 1.10, written by Peter Selinger 2001-2011
</metadata>
<g transform="translate(0.000000,69.000000) scale(0.100000,-0.100000)"
fill="#000000" stroke="none">
<path d="M213 653 c-7 -18 -21 -50 -30 -70 l-17 -38 -4 38 c-3 36 -4 37 -43
37 -38 0 -39 -1 -39 -35 0 -26 -4 -33 -15 -29 -8 3 -25 -6 -40 -20 l-25 -25 0
-208 c0 -173 3 -212 16 -231 l15 -22 364 0 364 0 15 22 c13 19 16 58 16 231 0
207 0 208 -25 232 -20 21 -33 25 -88 25 l-64 0 -24 61 -24 60 -169 2 -169 2
-14 -32z m357 -58 l24 -64 81 -3 80 -3 3 -214 c2 -149 -1 -218 -9 -227 -16
-19 -688 -21 -707 -2 -9 9 -12 72 -12 224 0 242 -8 224 99 224 l67 0 24 65 24
65 151 0 151 0 24 -65z m-440 -20 c0 -26 -14 -33 -25 -15 -9 14 1 40 15 40 5
0 10 -11 10 -25z"/>
<path d="M317 556 c-59 -22 -103 -61 -131 -118 -100 -200 107 -409 310 -314
215 100 155 425 -83 442 -35 3 -72 -1 -96 -10z m161 -31 c206 -87 142 -396
-83 -396 -160 0 -257 163 -183 306 47 90 168 130 266 90z"/>
<path d="M316 467 c-100 -57 -102 -207 -4 -267 44 -27 122 -27 166 0 98 60 96
210 -4 267 -50 29 -108 29 -158 0z m97 -23 c-3 -9 1 -14 12 -14 11 0 15 5 11
15 -9 25 10 17 48 -18 38 -36 52 -73 42 -112 -4 -16 -11 -22 -21 -19 -9 4 -15
0 -15 -10 0 -9 6 -16 13 -16 6 0 -3 -14 -21 -31 -23 -20 -39 -28 -53 -24 -11
4 -19 2 -19 -4 0 -13 -24 -14 -48 -2 -9 5 -25 12 -34 15 -12 3 -15 11 -11 22
5 14 3 16 -11 11 -11 -4 -19 -1 -22 11 -3 9 -10 25 -15 34 -12 24 -11 48 2 48
6 0 8 8 4 19 -4 12 4 30 21 50 21 25 29 29 40 20 8 -7 18 -9 21 -5 4 4 1 11
-7 16 -10 6 -6 9 16 12 39 5 54 -1 47 -18z"/>
<path d="M296 412 c-3 -6 -1 -14 5 -17 15 -10 25 3 12 16 -7 7 -13 7 -17 1z"/>
<path d="M376 413 c-11 -11 -6 -23 9 -23 8 0 15 4 15 9 0 13 -16 22 -24 14z"/>
<path d="M456 413 c-11 -11 -6 -23 9 -23 8 0 15 4 15 9 0 13 -16 22 -24 14z"/>
<path d="M337 373 c-12 -11 -8 -23 8 -23 8 0 15 7 15 15 0 16 -12 20 -23 8z"/>
<path d="M416 373 c-11 -11 -6 -23 9 -23 8 0 15 4 15 9 0 13 -16 22 -24 14z"/>
<path d="M490 365 c0 -9 5 -15 11 -13 6 2 11 8 11 13 0 5 -5 11 -11 13 -6 2
-11 -4 -11 -13z"/>
<path d="M297 334 c-8 -8 1 -24 14 -24 5 0 9 7 9 15 0 15 -12 20 -23 9z"/>
<path d="M377 333 c-12 -11 -8 -23 8 -23 8 0 15 7 15 15 0 16 -12 20 -23 8z"/>
<path d="M450 326 c0 -9 7 -16 16 -16 17 0 14 22 -4 28 -7 2 -12 -3 -12 -12z"/>
<path d="M337 294 c-8 -8 1 -24 14 -24 5 0 9 7 9 15 0 15 -12 20 -23 9z"/>
<path d="M410 285 c0 -8 7 -15 15 -15 8 0 15 7 15 15 0 8 -7 15 -15 15 -8 0
-15 -7 -15 -15z"/>
<path d="M372 248 c6 -18 28 -21 28 -4 0 9 -7 16 -16 16 -9 0 -14 -5 -12 -12z"/>
<path d="M452 251 c4 -13 18 -16 19 -4 0 4 -5 9 -11 12 -7 2 -11 -2 -8 -8z"/>
<path d="M640 481 c-5 -11 -10 -26 -10 -34 0 -20 33 -47 57 -47 23 0 53 29 53
53 0 43 -79 66 -100 28z m66 -16 c8 -20 -13 -45 -32 -38 -14 5 -19 34 -7 46
11 12 33 7 39 -8z"/>
</g>
</svg>
