<?xml version="1.0" standalone="no"?>
<!DOCTYPE svg PUBLIC "-//W3C//DTD SVG 20010904//EN"
 "http://www.w3.org/TR/2001/REC-SVG-20010904/DTD/svg10.dtd">
<svg version="1.0" xmlns="http://www.w3.org/2000/svg"
 width="67.000000pt" height="80.000000pt" viewBox="0 0 67.000000 80.000000"
 preserveAspectRatio="xMidYMid meet">
<metadata>
Created by potrace 1.10, written by Peter Selinger 2001-2011
</metadata>
<g transform="translate(0.000000,80.000000) scale(0.100000,-0.100000)"
fill="#000000" stroke="none">
<path d="M384 789 c-114 -7 -184 -25 -184 -47 0 -4 -13 -13 -30 -19 -51 -19
-56 -47 -36 -196 23 -171 31 -200 63 -238 37 -44 24 -59 -78 -86 -48 -13 -89
-30 -97 -40 -8 -12 -12 -41 -10 -83 l3 -65 323 -3 c254 -2 322 0 323 10 6 63
-2 132 -16 148 -9 9 -44 23 -78 30 -65 13 -107 33 -107 51 0 6 11 25 24 42 43
59 60 159 36 221 -7 19 -5 36 7 63 20 48 20 137 0 186 -9 20 -17 36 -19 36 -2
-1 -58 -5 -124 -10z m125 -56 c15 -54 13 -96 -6 -144 l-16 -41 -71 7 c-39 3
-102 13 -139 22 -66 14 -91 12 -71 -6 16 -16 151 -41 218 -41 56 0 65 -3 70
-20 3 -11 9 -29 12 -40 3 -11 1 -20 -5 -20 -6 0 -11 7 -11 15 0 13 -23 15
-150 15 -127 0 -150 -2 -150 -15 0 -8 -4 -15 -10 -15 -13 0 -13 3 6 50 18 44
11 67 -10 37 -12 -15 -14 -13 -20 20 -15 96 -4 143 36 143 9 0 22 8 27 19 6
10 18 22 28 26 15 7 106 16 225 23 23 2 29 -3 37 -35z m-209 -283 c0 -5 -20
-10 -45 -10 -25 0 -45 5 -45 10 0 6 20 10 45 10 25 0 45 -4 45 -10z m52 -19
c-5 -34 25 -61 69 -61 39 0 69 20 69 46 0 8 5 14 10 14 13 0 4 -43 -22 -97
-66 -142 -239 -122 -292 33 -19 55 -20 64 -6 64 6 0 10 -9 10 -20 0 -24 28
-40 73 -40 42 0 62 21 59 62 -2 24 1 29 15 26 12 -2 17 -11 15 -27z m118 19
c0 -5 -20 -10 -45 -10 -25 0 -45 5 -45 10 0 6 20 10 45 10 25 0 45 -4 45 -10z
m-170 -40 c0 -5 -18 -10 -39 -10 -22 0 -43 5 -46 10 -4 6 12 10 39 10 25 0 46
-4 46 -10z m165 0 c-3 -5 -24 -10 -46 -10 -21 0 -39 5 -39 10 0 6 21 10 46 10
27 0 43 -4 39 -10z m-123 -200 c24 1 54 7 68 14 21 12 26 12 37 -3 10 -14 4
-24 -40 -68 -29 -30 -60 -53 -72 -53 -12 0 -39 22 -66 53 -37 42 -44 55 -36
69 10 15 14 15 38 2 16 -8 47 -14 71 -14z m-87 -80 c78 -79 94 -79 169 0 59
61 88 73 105 43 7 -13 12 -14 23 -6 9 8 23 8 48 -1 38 -12 49 -40 42 -104 l-4
-32 -300 0 -299 0 3 62 3 62 44 13 c33 9 47 10 52 2 4 -7 12 -8 18 -5 6 4 9
12 6 17 -4 5 2 9 12 9 10 0 45 -27 78 -60z"/>
<path d="M284 318 c-7 -10 31 -28 58 -28 21 0 72 27 58 31 -21 5 -113 3 -116
-3z"/>
<path d="M100 135 c0 -8 7 -15 15 -15 8 0 15 7 15 15 0 8 -7 15 -15 15 -8 0
-15 -7 -15 -15z"/>
<path d="M180 135 c0 -9 5 -15 11 -13 6 2 11 8 11 13 0 5 -5 11 -11 13 -6 2
-11 -4 -11 -13z"/>
<path d="M490 135 c0 -8 7 -15 15 -15 8 0 15 7 15 15 0 8 -7 15 -15 15 -8 0
-15 -7 -15 -15z"/>
<path d="M570 135 c0 -9 5 -15 11 -13 6 2 11 8 11 13 0 5 -5 11 -11 13 -6 2
-11 -4 -11 -13z"/>
<path d="M60 95 c0 -8 7 -15 15 -15 8 0 15 7 15 15 0 8 -7 15 -15 15 -8 0 -15
-7 -15 -15z"/>
<path d="M140 95 c0 -8 7 -15 15 -15 8 0 15 7 15 15 0 8 -7 15 -15 15 -8 0
-15 -7 -15 -15z"/>
<path d="M220 95 c0 -9 5 -15 11 -13 6 2 11 8 11 13 0 5 -5 11 -11 13 -6 2
-11 -4 -11 -13z"/>
<path d="M450 95 c0 -8 7 -15 15 -15 8 0 15 7 15 15 0 8 -7 15 -15 15 -8 0
-15 -7 -15 -15z"/>
<path d="M530 95 c0 -8 7 -15 15 -15 8 0 15 7 15 15 0 8 -7 15 -15 15 -8 0
-15 -7 -15 -15z"/>
<path d="M610 95 c0 -9 5 -15 11 -13 6 2 11 8 11 13 0 5 -5 11 -11 13 -6 2
-11 -4 -11 -13z"/>
<path d="M100 54 c0 -9 5 -14 12 -12 18 6 21 28 4 28 -9 0 -16 -7 -16 -16z"/>
<path d="M180 55 c0 -9 5 -15 11 -13 6 2 11 8 11 13 0 5 -5 11 -11 13 -6 2
-11 -4 -11 -13z"/>
<path d="M260 55 c0 -9 5 -15 11 -13 6 2 11 8 11 13 0 5 -5 11 -11 13 -6 2
-11 -4 -11 -13z"/>
<path d="M490 54 c0 -17 22 -14 28 4 2 7 -3 12 -12 12 -9 0 -16 -7 -16 -16z"/>
<path d="M570 55 c0 -9 5 -15 11 -13 6 2 11 8 11 13 0 5 -5 11 -11 13 -6 2
-11 -4 -11 -13z"/>
</g>
</svg>
